<?xml version="1.0" encoding="utf-8"?>
<!-- Generator: Adobe Illustrator 21.1.0, SVG Export Plug-In . SVG Version: 6.00 Build 0)  -->
<svg version="1.1" id="Layer_1" xmlns="http://www.w3.org/2000/svg" xmlns:xlink="http://www.w3.org/1999/xlink" x="0px" y="0px"
	 viewBox="0 0 517.8 517.8" style="enable-background:new 0 0 517.8 517.8;" xml:space="preserve">
<style type="text/css">
	.st0{fill:#005E8F;}
	.st1{fill:#FFFFFF;}
</style>
<g>
	<rect class="st0" width="517.8" height="517.8"/>
	<path class="st1" d="M310.2,172.6c10.2,0,18.5,8.5,18.5,18.9c0,10.4-8.2,18.9-18.4,18.9l-49.5-0.1l0,71.2l42.1-43.4
		c7.2-7.4,19.7-8.5,26.8-1.2c0.3,0.4,0.7,0.7,1,1.1l0-47.8c0.6-9.9,8.5-17.7,18.3-17.7h67.8c10.2,0,18.5,8.5,18.5,18.9
		c0,10.4-8.2,18.9-18.4,18.9l-49.5-0.1l0,71.2l42.1-43.4c7.2-7.4,19.7-8.5,26.8-1.2c7.2,7.4,6.3,19.2-0.9,26.5l-74.5,76.2
		c-3.3,3.3-7.1,5.4-12,5.4c-10.2,0-18.4-8.5-18.4-19l0-64.8c-0.6,0.7-1.2,1.5-1.8,2.1l-74.5,76.2c-3.3,3.3-7.1,5.4-12,5.4
		c-10.2,0-18.4-8.5-18.4-19c0,0,0.1-135.9,0.1-135.9c0.6-9.9,8.5-17.7,18.3-17.7H310.2z"/>
	<path class="st1" d="M127,172.6h70.1c10.2,0,18.3,8.4,18.3,18.8l0,134.8c0,10.5-8.3,19-18.4,19c-10.2,0-18.4-8.5-18.4-18.9v-60.4
		c-0.7,1-1.4,2-2.3,2.9l-69.4,70.8c-3.3,3.3-7.1,5.4-12.1,5.4c-10.2,0-18.4-8.5-18.4-19V224.3c0-4.4,1.5-8.3,3.9-11.5l35.5-36.6
		C119,174,122.9,172.6,127,172.6 M178.6,244.9v-34.3l-44,0l-21.3,21.9V280l37.1-38c7.2-7.4,18.8-7.4,26,0
		C177.2,242.9,178,243.9,178.6,244.9"/>
</g>
</svg>
