<?xml version="1.0" encoding="UTF-8"?>
<svg width="225px" height="26px" viewBox="0 0 225 26" version="1.1" xmlns="http://www.w3.org/2000/svg" xmlns:xlink="http://www.w3.org/1999/xlink">
    <!-- Generator: Sketch 51.3 (57544) - http://www.bohemiancoding.com/sketch -->
    <title>Group 5</title>
    <desc>Created with Sketch.</desc>
    <defs></defs>
    <g id="Page-1" stroke="none" stroke-width="1" fill="none" fill-rule="evenodd">
        <g id="Group-5">
            <path d="M113.275,8.2875 C113.275,13.8905 117.192391,14.0768333 120.122826,14.209 C121.773913,14.2880833 122.972826,14.39425 122.972826,15.5620833 C122.972826,16.6800833 122.146739,17.13075 119.882609,17.13075 C118.443478,17.13075 115.913043,16.8913333 113.807609,16.49375 L113.807609,20.6613333 C116.098913,21.3795833 119.163043,21.4846667 120.203261,21.4846667 C126.330435,21.4846667 128.861957,18.59 128.861957,15.2706667 C128.861957,9.56258333 124.731522,9.32316667 121.773913,9.16391667 C120.203261,9.08375 119.083696,9.03066667 119.083696,7.969 C119.083696,6.85316667 120.043478,6.61375 122.359783,6.61375 C123.480435,6.61375 125.131522,6.721 127.155435,7.01241667 L127.155435,3.003 C125.851087,2.55125 122.893478,2.31183333 121.507609,2.31183333 C115.726087,2.31183333 113.275,4.70166667 113.275,8.2875 L113.275,8.2875 Z M144.382609,15.7235 C144.490217,14.6336667 144.516304,13.3325833 144.516304,12.80175 C144.516304,8.65908333 142.251087,6.77408333 137.748913,6.77408333 C134.152174,6.77408333 130.182609,8.2875 130.182609,14.1299167 C130.182609,18.8825 132.232609,21.4846667 138.148913,21.4846667 C140.146739,21.4846667 142.570652,21.112 143.929348,20.7144167 L143.929348,17.0776667 C142.623913,17.3690833 141.23913,17.6615833 139.346739,17.6615833 C137.748913,17.6615833 136.790217,17.4221667 136.256522,16.8913333 C135.963043,16.5988333 135.883696,16.20125 135.883696,15.7235 L144.382609,15.7235 L144.382609,15.7235 Z M137.748913,10.1194167 C138.175,10.1194167 138.734783,10.1725 139.16087,10.5971667 C139.373913,10.8105833 139.480435,11.26125 139.480435,11.8993333 C139.480435,12.0575 139.480435,12.2178333 139.454348,12.45725 L135.883696,12.45725 C135.883696,11.9524167 135.936957,10.94275 136.283696,10.5971667 C136.709783,10.1725 137.242391,10.1194167 137.748913,10.1194167 L137.748913,10.1194167 Z M151.309783,9.03066667 L151.229348,9.03066667 L150.51087,7.358 L146.646739,7.358 L146.646739,20.90075 L152.294565,20.90075 L152.294565,13.09425 C152.855435,12.0575 153.601087,11.3143333 155.03913,11.3143333 C155.413043,11.3143333 155.892391,11.3403333 156.425,11.4215833 L156.425,7.384 C155.572826,6.98641667 154.853261,6.98641667 154.507609,6.98641667 C152.829348,6.98641667 152.029348,7.67758333 151.309783,9.03066667 L151.309783,9.03066667 Z M167.880435,7.358 L166.576087,11.55375 C165.963043,13.546 165.670652,15.1114167 165.430435,16.731 L165.323913,16.731 C165.084783,15.1114167 164.76413,13.546 164.178261,11.55375 L162.872826,7.358 L156.825,7.358 L161.807609,20.90075 L168.628261,20.90075 L173.690217,7.358 L167.880435,7.358 L167.880435,7.358 Z M174.569565,20.90075 L180.217391,20.90075 L180.217391,7.33525 L174.569565,7.33525 L174.569565,20.90075 Z M191.129348,17.47525 C189.877174,17.47525 189.317391,17.3690833 188.757609,16.8111667 C188.278261,16.3323333 188.117391,15.2706667 188.117391,14.1299167 C188.117391,12.987 188.278261,11.9253333 188.757609,11.4475833 C189.317391,10.8896667 189.823913,10.7835 191.076087,10.7835 C191.741304,10.7835 192.91413,10.8636667 194.3,11.076 L194.3,7.384 C192.86087,6.90733333 190.65,6.87916667 190.01087,6.87916667 C182.842391,6.87916667 182.096739,11.1821667 182.096739,14.1299167 C182.096739,18.6961667 184.121739,21.4315833 189.823913,21.4315833 C190.703261,21.4315833 192.754348,21.3795833 194.48587,20.7675 L194.48587,17.0776667 C192.994565,17.3690833 191.794565,17.47525 191.129348,17.47525 L191.129348,17.47525 Z M209.953261,15.7235 C210.06087,14.6336667 210.086957,13.3325833 210.086957,12.80175 C210.086957,8.65908333 207.822826,6.77408333 203.320652,6.77408333 C199.722826,6.77408333 195.753261,8.2875 195.753261,14.1299167 C195.753261,18.8825 197.804348,21.4846667 203.719565,21.4846667 C205.717391,21.4846667 208.142391,21.112 209.5,20.7144167 L209.5,17.0776667 C208.195652,17.3690833 206.809783,17.6615833 204.917391,17.6615833 C203.320652,17.6615833 202.36087,17.4221667 201.828261,16.8913333 C201.534783,16.5988333 201.455435,16.20125 201.455435,15.7235 L209.953261,15.7235 L209.953261,15.7235 Z M203.320652,10.1194167 C203.745652,10.1194167 204.305435,10.1725 204.732609,10.5971667 C204.944565,10.8105833 205.052174,11.26125 205.052174,11.8993333 C205.052174,12.0575 205.052174,12.2178333 205.025,12.45725 L201.455435,12.45725 C201.455435,11.9524167 201.508696,10.94275 201.854348,10.5971667 C202.281522,10.1725 202.81413,10.1194167 203.320652,10.1194167 L203.320652,10.1194167 Z M211.392391,11.6068333 C211.392391,8.49875 213.790217,6.87916667 218.372826,6.87916667 C219.492391,6.87916667 222.076087,6.98641667 223.461957,7.384 L223.461957,10.9698333 C221.809783,10.5971667 220.051087,10.491 218.772826,10.491 C217.440217,10.491 216.854348,10.5700833 216.854348,11.2081667 C216.854348,11.8191667 217.41413,11.8993333 218.719565,11.9524167 C221.117391,12.0575 224.873913,11.9784167 224.873913,16.3323333 C224.873913,19.4133333 222.715217,21.4315833 217.066304,21.4315833 C216.161957,21.4315833 214.056522,21.3795833 211.792391,20.7945833 L211.792391,17.1025833 C213.551087,17.4221667 215.255435,17.6865 216.907609,17.6865 C218.826087,17.6865 219.492391,17.5023333 219.492391,16.8664167 C219.492391,16.2543333 218.958696,16.1210833 217.627174,16.068 C215.229348,15.9878333 211.392391,15.9629167 211.392391,11.6068333 Z M181.731522,3.159 L181.727174,3.16116667 L181.731522,3.16333333 L181.722826,3.16333333 L177.396739,5.64633333 L173.086957,3.16333333 L173.080435,3.16333333 L173.083696,3.16116667 L173.080435,3.159 L173.086957,3.159 L177.396739,0.674916667 L181.722826,3.159 L181.731522,3.159 Z" id="Combined-Shape" fill="#579843"></path>
            <path d="M10.4695652,6.78925 L14.9793478,6.78925 L14.9793478,2.77658333 L0,2.77658333 L0,6.78925 L4.48369565,6.78925 L4.48369565,20.9159167 L10.4695652,20.9159167 L10.4695652,6.78925 L10.4695652,6.78925 Z M27.4619565,15.6996667 C27.5695652,14.6011667 27.5967391,13.2903333 27.5967391,12.75625 C27.5967391,8.58216667 25.3141304,6.682 20.7771739,6.682 C17.1543478,6.682 13.1543478,8.20733333 13.1543478,14.0930833 C13.1543478,18.8825 15.2206522,21.5041667 21.1804348,21.5041667 C23.1934783,21.5041667 25.6369565,21.1293333 27.0054348,20.7295833 L27.0054348,17.0625 C25.6902174,17.35825 24.2934783,17.65075 22.3880435,17.65075 C20.7771739,17.65075 19.8108696,17.4113333 19.273913,16.8761667 C18.9793478,16.5825833 18.898913,16.1806667 18.898913,15.6996667 L27.4619565,15.6996667 L27.4619565,15.6996667 Z M20.7771739,10.0533333 C21.2065217,10.0533333 21.7717391,10.1075 22.2,10.5354167 C22.4152174,10.7488333 22.5228261,11.2038333 22.5228261,11.84625 C22.5228261,12.0055 22.5228261,12.1669167 22.4956522,12.4085 L18.898913,12.4085 C18.898913,11.8993333 18.9521739,10.8831667 19.3021739,10.5354167 C19.7304348,10.1075 20.2684783,10.0533333 20.7771739,10.0533333 L20.7771739,10.0533333 Z M34.3880435,8.79666667 L34.3065217,8.79666667 L33.6358696,7.27025 L29.7434783,7.27025 L29.7434783,20.9159167 L35.4347826,20.9159167 L35.4347826,12.0336667 C35.8097826,11.63175 36.9380435,11.0435 37.851087,11.0435 C38.5217391,11.0435 38.951087,11.1778333 38.951087,12.0055 L38.951087,20.9159167 L44.6423913,20.9159167 L44.6423913,11.0705833 C44.6423913,7.91266667 42.8434783,6.81525 39.3815217,6.81525 C37.7163043,6.81525 35.8913043,7.43166667 34.3880435,8.79666667 L34.3880435,8.79666667 Z M56.2652174,19.6061667 L56.3195652,19.6061667 L56.8565217,20.9159167 L60.5336957,20.9159167 L60.5336957,11.9795 C60.5336957,8.10008333 59.7021739,6.76325 53.3402174,6.76325 C52.7228261,6.76325 49.5282609,6.84341667 47.5684783,7.32441667 L47.5684783,10.93625 C49.0717391,10.6155833 50.7086957,10.3750833 53.0173913,10.3750833 C55.0304348,10.3750833 55.1108696,10.48125 55.1108696,11.7660833 L55.1108696,11.9264167 C54.6282609,11.8993333 54.2521739,11.8993333 53.8771739,11.8993333 C50.7086957,11.8993333 48.6152174,12.32725 47.5413043,13.3975833 C46.575,14.3606667 46.3065217,15.5111667 46.3065217,16.7429167 C46.3065217,18.07975 46.7902174,19.20425 47.4880435,19.89975 C48.4543478,20.8628333 50.0108696,21.2896667 51.7826087,21.2896667 C53.6880435,21.2896667 55.3793478,20.6743333 56.2652174,19.6061667 L56.2652174,19.6061667 Z M55.0847826,16.7678333 C54.7086957,17.2759167 54.1445652,17.5705833 53.1782609,17.5705833 C52.373913,17.5705833 51.7826087,17.38425 51.7826087,16.1275833 C51.7826087,15.7256667 51.9163043,15.4580833 52.1054348,15.2706667 C52.4,14.976 52.748913,14.8156667 53.85,14.8156667 C54.1445652,14.8156667 54.3858696,14.8156667 55.0847826,14.84275 L55.0847826,16.7678333 L55.0847826,16.7678333 Z M67.7282609,8.79666667 L67.6478261,8.79666667 L66.976087,7.27025 L63.0836957,7.27025 L63.0836957,20.9159167 L68.775,20.9159167 L68.775,12.0336667 C69.151087,11.63175 70.2782609,11.0435 71.1913043,11.0435 C71.8630435,11.0435 72.2913043,11.1778333 72.2913043,12.0055 L72.2913043,20.9159167 L77.9826087,20.9159167 L77.9826087,11.0705833 C77.9826087,7.91266667 76.1847826,6.81525 72.7217391,6.81525 C71.0565217,6.81525 69.2315217,7.43166667 67.7282609,8.79666667 L67.7282609,8.79666667 Z M88.775,17.4644167 C87.5130435,17.4644167 86.948913,17.35825 86.3847826,16.796 C85.9021739,16.3139167 85.7413043,15.2446667 85.7413043,14.0930833 C85.7413043,12.9425833 85.9021739,11.87225 86.3847826,11.39125 C86.948913,10.829 87.4586957,10.7228333 88.7206522,10.7228333 C89.3913043,10.7228333 90.5728261,10.8019167 91.9684783,11.0164167 L91.9684783,7.29733333 C90.5184783,6.81525 88.2913043,6.78925 87.6467391,6.78925 C80.425,6.78925 79.673913,11.1236667 79.673913,14.0930833 C79.673913,18.6961667 81.7141304,21.4510833 87.4586957,21.4510833 C88.3445652,21.4510833 90.4119565,21.398 92.1565217,20.7826667 L92.1565217,17.0625 C90.6532609,17.35825 89.4456522,17.4644167 88.775,17.4644167 L88.775,17.4644167 Z M103.565217,7.27025 L103.565217,14.976 C103.18913,15.3779167 102.061957,15.9661667 101.148913,15.9661667 C100.478261,15.9661667 100.048913,15.8329167 100.048913,15.0041667 L100.048913,7.27025 L94.3576087,7.27025 L94.3576087,15.9390833 C94.3576087,19.0959167 96.1836957,20.1944167 99.6195652,20.1944167 C100.988043,20.1944167 102.598913,19.7394167 103.591304,18.98975 L103.645652,18.98975 L103.645652,19.7914167 C103.645652,20.6494167 103.807609,22.0393333 100.719565,22.0393333 C99.7,22.0393333 97.3641304,21.9060833 95.2706522,21.4510833 L95.2706522,25.3565 C97.4445652,25.9198333 100.451087,26 101.417391,26 C105.256522,26 109.256522,24.6079167 109.256522,19.4978333 L109.256522,7.27025 L103.565217,7.27025 L103.565217,7.27025 Z" id="Fill-4" fill="#21643C"></path>
        </g>
    </g>
</svg>