<svg width="160" height="53" viewBox="0 0 160 53" fill="none" xmlns="http://www.w3.org/2000/svg">
<path d="M13.5167 10.7518C21.3124 10.7518 27.0334 15.8747 27.0334 23.9702C27.0334 32.0656 21.3124 37.1886 13.5167 37.1886C5.72102 37.1886 0 32.0656 0 23.9702C0 15.8747 5.72102 10.7518 13.5167 10.7518ZM13.5167 32.0656C18.2318 32.0656 21.3124 28.6504 21.3124 23.9702C21.3124 19.29 18.2318 15.8747 13.5167 15.8747C8.80157 15.8747 5.72102 19.29 5.72102 23.9702C5.72102 28.6504 8.80157 32.0656 13.5167 32.0656Z" fill="white"/>
<path d="M29.8625 18.0883H35.0177V20.4917H35.0806C35.9607 19.1635 38.0982 17.6456 40.613 17.6456C45.9568 17.6456 49.4774 21.5036 49.4774 27.006C49.4774 32.0656 46.334 36.6826 41.2417 36.6826C38.9155 36.6826 36.778 36.0501 35.5206 34.2793H35.4578V44.7148H29.8625V18.0883ZM39.4185 31.7494C42.1847 31.7494 43.8821 29.852 43.8821 27.1325C43.8821 24.4129 42.1847 22.5155 39.4185 22.5155C36.6523 22.5155 34.9548 24.4129 34.9548 27.1325C34.9548 29.852 36.6523 31.7494 39.4185 31.7494Z" fill="white"/>
<path d="M70.4755 33.8365C68.6523 36.1766 65.6975 37.5048 62.7427 37.5048C57.0845 37.5048 52.558 33.71 52.558 27.8282C52.558 21.9463 57.0845 18.1516 62.7427 18.1516C68.0236 18.1516 71.3556 21.9463 71.3556 27.8282V29.599H58.2161C58.6562 31.7494 60.2908 33.1408 62.4912 33.1408C64.3144 33.1408 65.5717 32.1921 66.5148 30.9272L70.4755 33.8365ZM65.6975 25.741C65.7603 23.8437 64.2515 22.2625 62.2397 22.2625C59.725 22.2625 58.4047 23.9702 58.2161 25.741H65.6975Z" fill="white"/>
<path d="M74.7505 18.9738H80.22V21.5036H80.2829C81.0373 20.0489 82.9234 18.531 85.6896 18.531C91.4735 18.531 92.5422 22.3258 92.5422 27.3222V37.568H86.8841V28.3974C86.8841 26.247 86.8212 23.5275 83.9293 23.5275C80.9745 23.5275 80.5344 25.8676 80.5344 28.2709V37.5048H74.8762V18.9738H74.7505Z" fill="white"/>
<path d="M98.0118 11.3842H103.293V40.9833H98.0118V11.3842Z" fill="white"/>
<path d="M121.462 34.6587H121.399C120.142 36.6826 117.815 37.5048 115.489 37.5048C111.969 37.5048 108.825 35.4809 108.825 31.6861C108.825 25.1718 116.684 25.1086 121.462 25.1086C121.462 23.0847 119.764 21.7566 117.753 21.7566C115.866 21.7566 114.295 22.5787 113.1 23.9702L110.02 20.8079C112.157 18.784 115.175 17.7721 118.255 17.7721C124.982 17.7721 126.806 21.1873 126.806 27.4487V36.9988H121.525V34.6587H121.462ZM120.016 28.8401C118.255 28.8401 114.358 28.9666 114.358 31.5597C114.358 32.9511 115.804 33.5835 117.061 33.5835C119.324 33.5835 121.462 32.3819 121.462 30.0418V28.7768H120.016V28.8401Z" fill="white"/>
<path d="M129.132 19.6062H134.978L138.625 30.864H138.688L141.705 19.6062H147.741L151.01 30.864H151.073L154.405 19.6062H160L153.65 37.5048H148.244L144.534 25.6146H144.471L141.202 37.5048H135.67L129.132 19.6062Z" fill="white"/>
<path d="M103.293 4.99642H69.2181C68.4008 2.08711 65.7603 0 62.6169 0C58.7819 0 55.6385 3.16229 55.6385 7.02029C55.6385 10.8783 58.7819 14.0406 62.6169 14.0406C65.8232 14.0406 68.5894 11.827 69.3438 8.85441H103.356V4.99642H103.293ZM62.6169 10.9415C60.4794 10.9415 58.719 9.17064 58.719 7.02029C58.719 4.86993 60.4794 3.09905 62.6169 3.09905C64.7544 3.09905 66.5147 4.86993 66.5147 7.02029C66.5147 9.23389 64.7544 10.9415 62.6169 10.9415Z" fill="#00A8B3"/>
<path d="M138.75 38.8962C135.544 38.8962 132.778 41.1098 132.024 44.0823H98.0118V47.9403H132.086C132.967 50.8496 135.607 52.9367 138.75 52.9367C142.585 52.9367 145.729 49.7745 145.729 45.9165C145.729 42.0585 142.585 38.8962 138.75 38.8962ZM138.75 49.901C136.613 49.901 134.853 48.1301 134.853 45.9797C134.853 43.8294 136.613 42.0585 138.75 42.0585C140.888 42.0585 142.648 43.8294 142.648 45.9797C142.648 48.1301 140.888 49.901 138.75 49.901Z" fill="#00A8B3"/>
</svg>
